<svg xmlns="http://www.w3.org/2000/svg" width="512" height="512" viewBox="0 0 512 512">
<g>
<path d="M 387.12 494.53 C377.02,496.30 359.14,496.30 349.38,494.53 C325.59,490.21 304.12,478.47 287.00,460.41 C266.69,438.99 256.65,413.72 256.65,384.00 C256.65,352.78 267.06,327.85 289.44,305.43 C306.60,288.26 323.70,279.12 348.50,273.89 C356.24,272.26 380.76,272.26 388.50,273.89 C418.32,280.18 440.62,294.10 458.13,317.33 C479.94,346.28 486.02,386.02 473.93,420.62 C460.38,459.41 427.43,487.46 387.12,494.53 ZM 222.47 446.58 C217.72,448.56 137.54,448.51 128.50,446.52 C112.48,442.99 99.96,435.95 87.44,423.46 C79.55,415.59 77.72,413.07 73.26,403.96 C71.58,400.52 70.22,398.16 69.12,395.68 C64.45,385.17 64.45,372.57 64.49,266.82 C64.50,256.19 64.50,244.61 64.50,232.00 C64.50,219.65 64.50,208.30 64.49,197.84 C64.45,91.22 64.45,78.80 69.07,68.44 C70.13,66.06 71.43,63.78 73.04,60.50 C83.15,39.80 102.05,24.62 125.50,18.37 C132.13,16.60 138.22,16.50 240.50,16.50 L 348.50 16.50 L 356.84 18.78 C383.35,26.03 402.96,44.62 412.30,71.35 L 415.50 80.50 L 415.77 156.00 C416.04,228.20 415.97,231.65 414.17,235.00 C411.34,240.29 406.70,243.00 400.50,243.00 C393.90,243.00 389.33,240.13 386.25,234.03 L 384.00 229.58 L 384.00 157.84 C384.00,94.29 384.00,84.69 380.32,76.81 C379.63,75.34 378.82,73.93 377.85,72.25 C370.94,60.17 357.45,50.92 343.86,48.96 C334.87,47.66 145.24,47.74 137.00,49.04 C127.55,50.54 117.02,55.85 110.43,62.43 C103.79,69.08 98.28,80.00 96.96,89.14 C95.70,97.87 95.72,367.73 96.98,375.44 C99.22,389.10 108.82,402.80 121.00,409.71 C131.45,415.65 134.62,415.99 178.64,416.06 C206.79,416.10 219.52,416.46 221.96,417.31 C227.13,419.09 231.38,425.68 231.38,431.91 C231.38,438.04 227.46,444.49 222.47,446.58 ZM 354.08 462.98 C361.94,464.63 382.61,463.51 390.50,461.00 C417.73,452.34 436.54,433.40 445.16,405.96 C447.16,399.57 447.50,396.42 447.50,384.00 C447.50,367.42 445.86,360.37 438.92,347.00 C413.86,298.77 347.64,289.56 310.45,329.13 C266.99,375.37 291.24,449.76 354.08,462.98 ZM 328.08 221.73 L 324.70 224.00 L 156.50 223.97 L 152.50 221.73 C148.18,219.31 144.00,212.57 144.00,208.00 C144.00,203.04 148.16,196.67 153.00,194.23 L 157.49 191.97 L 241.67 192.23 C325.31,192.50 325.87,192.51 328.68,194.59 C338.74,202.05 338.46,214.73 328.08,221.73 ZM 280.08 141.73 L 276.70 144.00 L 156.50 143.97 L 152.50 141.73 C148.18,139.31 144.00,132.57 144.00,128.00 C144.00,123.03 148.16,116.67 153.00,114.23 L 157.50 111.96 L 217.68 112.23 C276.96,112.50 277.90,112.53 280.68,114.59 C290.74,122.05 290.46,134.73 280.08,141.73 ZM 262.01 285.75 L 258.70 288.00 L 207.60 287.98 C156.56,287.97 156.49,287.96 152.50,285.73 C148.18,283.31 144.00,276.57 144.00,272.00 C144.00,267.04 148.16,260.67 153.00,258.22 L 157.50 255.95 L 208.68 256.22 C258.58,256.49 259.92,256.55 262.62,258.56 C267.86,262.48 269.50,265.68 269.50,272.00 C269.50,278.56 267.69,281.89 262.01,285.75 ZM 362.00 424.00 C360.08,424.55 357.84,424.99 357.01,424.98 C352.76,424.92 346.51,420.23 334.85,408.37 C320.74,394.01 318.89,390.70 320.92,383.46 C322.18,378.97 323.29,377.39 327.38,374.23 C329.68,372.45 331.58,372.00 336.73,372.00 L 343.19 372.00 L 349.93 378.50 C353.63,382.08 357.08,385.00 357.59,385.00 C358.10,385.00 365.49,377.98 374.01,369.39 C389.60,353.69 394.56,350.07 400.54,350.02 C405.23,349.99 412.09,353.99 414.18,357.98 C416.36,362.16 416.54,369.08 414.57,372.80 C413.78,374.28 402.41,386.19 389.31,399.25 C371.57,416.94 364.59,423.26 362.00,424.00 ZM 222.47 350.58 C219.77,351.71 212.59,352.00 187.78,351.98 C157.27,351.97 156.40,351.91 152.50,349.73 C148.18,347.31 144.00,340.57 144.00,336.00 C144.00,331.05 148.16,324.67 152.96,322.25 C157.31,320.06 158.22,320.00 187.96,320.06 C208.89,320.10 219.59,320.49 221.96,321.31 C227.13,323.09 231.38,329.68 231.38,335.91 C231.38,342.04 227.46,348.49 222.47,350.58 Z" fill="rgb(0,0,0)"/>
<path d="M 0.00 256.00 L 0.00 0.00 L 256.00 0.00 L 512.00 0.00 L 512.00 256.00 L 512.00 512.00 L 256.00 512.00 L 0.00 512.00 L 0.00 256.00 ZM 387.12 494.53 C427.43,487.46 460.38,459.41 473.93,420.62 C486.02,386.02 479.94,346.28 458.13,317.33 C440.62,294.10 418.32,280.18 388.50,273.89 C380.76,272.26 356.24,272.26 348.50,273.89 C323.70,279.12 306.60,288.26 289.44,305.43 C267.06,327.85 256.65,352.78 256.65,384.00 C256.65,413.72 266.69,438.99 287.00,460.41 C304.12,478.47 325.59,490.21 349.38,494.53 C359.14,496.30 377.02,496.30 387.12,494.53 ZM 222.47 446.58 C227.46,444.49 231.38,438.04 231.38,431.91 C231.38,425.68 227.13,419.09 221.96,417.31 C219.52,416.46 206.79,416.10 178.64,416.06 C134.62,415.99 131.45,415.65 121.00,409.71 C108.82,402.80 99.22,389.10 96.98,375.44 C95.72,367.73 95.70,97.87 96.96,89.14 C98.28,80.00 103.79,69.08 110.43,62.43 C117.02,55.85 127.55,50.54 137.00,49.04 C145.24,47.74 334.87,47.66 343.86,48.96 C357.45,50.92 370.94,60.17 377.85,72.25 C384.05,83.07 384.00,82.43 384.00,159.50 L 384.00 229.58 L 386.25 234.03 C389.33,240.13 393.90,243.00 400.50,243.00 C406.70,243.00 411.34,240.29 414.17,235.00 C415.97,231.65 416.04,228.20 415.77,156.00 L 415.50 80.50 L 412.30 71.35 C402.96,44.62 383.35,26.03 356.84,18.78 L 348.50 16.50 L 240.50 16.50 C138.22,16.50 132.13,16.60 125.50,18.37 C102.05,24.62 83.15,39.80 73.04,60.50 C63.77,79.47 64.50,64.72 64.50,232.00 C64.50,399.58 63.73,384.46 73.26,403.96 C77.72,413.07 79.55,415.59 87.44,423.46 C99.96,435.95 112.48,442.99 128.50,446.52 C137.54,448.51 217.72,448.56 222.47,446.58 ZM 222.47 350.58 C227.46,348.49 231.38,342.04 231.38,335.91 C231.38,329.68 227.13,323.09 221.96,321.31 C219.59,320.49 208.89,320.10 187.96,320.06 C158.22,320.00 157.31,320.06 152.96,322.25 C148.16,324.67 144.00,331.05 144.00,336.00 C144.00,340.57 148.18,347.31 152.50,349.73 C156.40,351.91 157.27,351.97 187.78,351.98 C212.59,352.00 219.77,351.71 222.47,350.58 ZM 262.01 285.75 C267.69,281.89 269.50,278.56 269.50,272.00 C269.50,265.68 267.86,262.48 262.62,258.56 C259.92,256.55 258.58,256.49 208.68,256.22 L 157.50 255.95 L 153.00 258.22 C148.16,260.67 144.00,267.04 144.00,272.00 C144.00,276.57 148.18,283.31 152.50,285.73 C156.49,287.96 156.56,287.97 207.60,287.98 L 258.70 288.00 L 262.01 285.75 ZM 328.08 221.73 C338.46,214.73 338.74,202.05 328.68,194.59 C325.87,192.51 325.31,192.50 241.67,192.23 L 157.49 191.97 L 153.00 194.23 C148.16,196.67 144.00,203.04 144.00,208.00 C144.00,212.57 148.18,219.31 152.50,221.73 L 156.50 223.97 L 240.60 223.98 L 324.70 224.00 L 328.08 221.73 ZM 280.08 141.73 C290.46,134.73 290.74,122.05 280.68,114.59 C277.90,112.53 276.96,112.50 217.68,112.23 L 157.50 111.96 L 153.00 114.23 C148.16,116.67 144.00,123.03 144.00,128.00 C144.00,132.57 148.18,139.31 152.50,141.73 L 156.50 143.97 L 216.60 143.98 L 276.70 144.00 L 280.08 141.73 ZM 354.08 462.98 C291.24,449.76 266.99,375.37 310.45,329.13 C347.64,289.56 413.86,298.77 438.92,347.00 C445.86,360.37 447.50,367.42 447.50,384.00 C447.50,396.42 447.16,399.57 445.16,405.96 C436.54,433.40 417.73,452.34 390.50,461.00 C382.61,463.51 361.94,464.63 354.08,462.98 ZM 362.00 424.00 C364.59,423.26 371.57,416.94 389.31,399.25 C402.41,386.19 413.78,374.28 414.57,372.80 C416.54,369.08 416.36,362.16 414.18,357.98 C412.09,353.99 405.23,349.99 400.54,350.02 C394.56,350.07 389.60,353.69 374.01,369.39 C365.49,377.98 358.10,385.00 357.59,385.00 C357.08,385.00 353.63,382.08 349.93,378.50 L 343.19 372.00 L 336.73 372.00 C331.58,372.00 329.68,372.45 327.38,374.23 C323.29,377.39 322.18,378.97 320.92,383.46 C318.89,390.70 320.74,394.01 334.85,408.37 C346.51,420.23 352.76,424.92 357.01,424.98 C357.84,424.99 360.08,424.55 362.00,424.00 Z" fill="rgb(254,254,254)"/>
</g>
</svg>